<svg width="347" height="224" viewBox="0 0 347 224" fill="none" xmlns="http://www.w3.org/2000/svg">
<path d="M338.522 223.48H9.24387C6.99612 223.478 4.84116 222.585 3.25176 220.997C1.66236 219.41 0.768317 217.257 0.765778 215.012V12.219C0.767609 10.5743 1.42257 8.99745 2.58696 7.83442C3.75135 6.67139 5.33011 6.01717 6.97684 6.01527H340.681C342.357 6.01718 343.963 6.6827 345.147 7.86584C346.332 9.04898 346.998 10.6531 347 12.3263V215.012C346.997 217.257 346.103 219.41 344.514 220.997C342.925 222.585 340.77 223.478 338.522 223.48Z" fill="#E6E6E6"/>
<path d="M327.876 212.789H20.9971C16.4985 212.789 12.8388 209.366 12.8388 205.159V28.5636C12.8388 25.4433 15.5507 22.9046 18.8842 22.9046H329.888C333.277 22.9046 336.034 25.4851 336.034 28.6568V205.159C336.034 209.366 332.374 212.789 327.876 212.789Z" fill="white"/>
<path d="M346.882 13.2743H0.64682V8.96315C0.65008 6.71064 1.54776 4.55139 3.14295 2.95912C4.73813 1.36684 6.90054 0.471572 9.15577 0.469711H338.373C340.628 0.47157 342.791 1.36684 344.386 2.95912C345.981 4.5514 346.879 6.71064 346.882 8.96315V13.2743Z" fill="#2597E1"/>
<path d="M16.1105 9.08307C17.3261 9.08307 18.3115 8.09886 18.3115 6.88478C18.3115 5.6707 17.3261 4.68649 16.1105 4.68649C14.895 4.68649 13.9096 5.6707 13.9096 6.88478C13.9096 8.09886 14.895 9.08307 16.1105 9.08307Z" fill="white"/>
<path d="M24.4647 9.08307C25.6802 9.08307 26.6656 8.09886 26.6656 6.88478C26.6656 5.6707 25.6802 4.68649 24.4647 4.68649C23.2491 4.68649 22.2638 5.6707 22.2638 6.88478C22.2638 8.09886 23.2491 9.08307 24.4647 9.08307Z" fill="white"/>
<path d="M32.8188 9.08307C34.0344 9.08307 35.0198 8.09886 35.0198 6.88478C35.0198 5.6707 34.0344 4.68649 32.8188 4.68649C31.6033 4.68649 30.6179 5.6707 30.6179 6.88478C30.6179 8.09886 31.6033 9.08307 32.8188 9.08307Z" fill="white"/>
<path d="M311.263 72.4786H165.865C160.044 72.4786 155.325 77.192 155.325 83.0062V83.0063C155.325 88.8205 160.044 93.5339 165.865 93.5339H311.263C317.085 93.5339 321.804 88.8205 321.804 83.0062C321.804 77.192 317.085 72.4786 311.263 72.4786Z" fill="#E6E6E6"/>
<path d="M311.263 107.319H165.865C160.044 107.319 155.325 112.033 155.325 117.847V117.847C155.325 123.661 160.044 128.375 165.865 128.375H311.263C317.085 128.375 321.804 123.661 321.804 117.847C321.804 112.033 317.085 107.319 311.263 107.319Z" fill="#E6E6E6"/>
<path d="M311.263 142.16H165.865C160.044 142.16 155.325 146.873 155.325 152.687V152.687C155.325 158.502 160.044 163.215 165.865 163.215H311.263C317.085 163.215 321.804 158.502 321.804 152.687C321.804 146.873 317.085 142.16 311.263 142.16Z" fill="#E6E6E6"/>
<path d="M141.652 117.847C141.652 129.012 138.337 139.927 132.126 149.21C125.916 158.494 117.088 165.729 106.761 170.002C96.4328 174.275 85.0684 175.393 74.1044 173.214C63.1405 171.036 53.0695 165.66 45.1649 157.765C37.2604 149.87 31.8773 139.811 29.6965 128.86C27.5156 117.909 28.6349 106.559 32.9128 96.2436C37.1907 85.9283 44.4351 77.1117 53.7299 70.9086C63.0246 64.7056 73.9523 61.3947 85.1311 61.3947C100.12 61.3995 114.493 67.3486 125.092 77.9344C135.691 88.5202 141.647 102.876 141.652 117.847Z" fill="white"/>
<path d="M85.1311 175.839C70.5351 175.826 56.4802 170.319 45.7693 160.416C35.0584 150.512 28.4789 136.94 27.3428 122.406C26.2067 107.872 30.5976 93.4439 39.6398 82C48.682 70.5561 61.7109 62.9371 76.1281 60.6624C90.5453 58.3878 105.291 61.6246 117.425 69.7275C129.559 77.8304 138.188 90.2038 141.593 104.38C144.998 118.556 142.927 133.493 135.794 146.212C128.661 158.931 116.99 168.497 103.109 173.002C97.3031 174.888 91.2358 175.845 85.1311 175.839ZM85.1311 62.9343C74.255 62.9328 63.6228 66.1527 54.579 72.1868C45.5353 78.221 38.4863 86.7983 34.3235 96.834C30.1607 106.87 29.0711 117.913 31.1925 128.567C33.314 139.221 38.5511 149.008 46.2416 156.689C53.9322 164.37 63.7306 169.601 74.3978 171.72C85.0649 173.839 96.1216 172.751 106.17 168.593C116.217 164.435 124.805 157.395 130.847 148.362C136.888 139.329 140.112 128.71 140.11 117.847C140.094 103.288 134.296 89.3305 123.989 79.036C113.682 68.7415 99.7074 62.9508 85.1311 62.9343Z" fill="#E6E6E6"/>
<path d="M83.658 134.772C82.4167 134.772 81.3713 134.413 80.522 133.694C79.738 132.91 79.346 131.995 79.346 130.95C79.346 128.01 79.8687 125.429 80.914 123.208C81.9593 120.987 83.168 119.157 84.54 117.72C85.9773 116.217 87.872 114.519 90.224 112.624C92.7067 110.664 94.536 108.965 95.712 107.528C96.888 106.091 97.476 104.457 97.476 102.628C97.476 95.5067 92.8047 91.946 83.462 91.946C81.1753 91.946 78.9213 92.24 76.7 92.828C74.544 93.3507 72.6167 94.1347 70.918 95.18C70.134 95.7027 69.3173 95.964 68.468 95.964C67.4227 95.964 66.508 95.572 65.724 94.788C64.94 94.004 64.548 93.0893 64.548 92.044C64.548 90.5413 65.3647 89.3 66.998 88.32C69.6767 86.6213 72.388 85.4127 75.132 84.694C77.876 83.9753 80.914 83.616 84.246 83.616C90.91 83.616 96.2347 85.282 100.22 88.614C104.271 91.946 106.296 96.454 106.296 102.138C106.296 104.686 105.839 106.94 104.924 108.9C104.009 110.795 102.899 112.428 101.592 113.8C100.285 115.107 98.554 116.609 96.398 118.308C93.5887 120.529 91.4653 122.555 90.028 124.384C88.656 126.148 87.97 128.337 87.97 130.95C87.97 131.995 87.5453 132.91 86.696 133.694C85.8467 134.413 84.834 134.772 83.658 134.772ZM83.462 153.392C81.894 153.392 80.522 152.837 79.346 151.726C78.2353 150.55 77.68 149.145 77.68 147.512C77.68 145.944 78.2353 144.605 79.346 143.494C80.522 142.318 81.894 141.73 83.462 141.73C85.0953 141.73 86.4673 142.318 87.578 143.494C88.754 144.605 89.342 145.944 89.342 147.512C89.342 149.145 88.754 150.55 87.578 151.726C86.4673 152.837 85.0953 153.392 83.462 153.392Z" fill="#E6E6E6"/>
</svg>
