<svg width="458" height="90" viewBox="0 0 458 90" fill="none" xmlns="http://www.w3.org/2000/svg">
<g filter="url(#filter0_d)">
<path d="M24.384 58.72C20.592 58.72 17.472 58.288 15.024 57.424C12.576 56.512 10.656 55.264 9.264 53.68C7.872 52.096 6.888 50.248 6.312 48.136C5.784 46.024 5.52 43.72 5.52 41.224C5.52 35.8 7.056 31.504 10.128 28.336C13.248 25.168 17.856 23.584 23.952 23.584C27.504 23.584 30.36 24.064 32.52 25.024C34.728 25.984 36.384 27.256 37.488 28.84C38.64 30.424 39.408 32.152 39.792 34.024C40.224 35.848 40.44 37.648 40.44 39.424V42.808C40.44 42.664 39.768 42.52 38.424 42.376C37.128 42.184 34.92 42.088 31.8 42.088H12.864C12.864 45.64 13.92 48.448 16.032 50.512C18.144 52.576 21.288 53.608 25.464 53.608C29.064 53.608 32.016 53.176 34.32 52.312C36.672 51.4 38.232 50.512 39 49.648V51.088L39.72 55.84C38.664 56.464 36.792 57.112 34.104 57.784C31.464 58.408 28.224 58.72 24.384 58.72ZM15.744 37.336H33.24C33.24 36.088 32.976 34.792 32.448 33.448C31.92 32.104 30.984 30.976 29.64 30.064C28.296 29.104 26.4 28.624 23.952 28.624C20.832 28.624 18.336 29.368 16.464 30.856C14.64 32.344 13.728 34.024 13.728 35.896C13.728 36.376 13.872 36.736 14.16 36.976C14.448 37.216 14.976 37.336 15.744 37.336ZM41.3338 58C41.8618 58 42.6298 57.664 43.6378 56.992C44.6458 56.32 45.7498 55.24 46.9498 53.752C47.8618 52.648 48.9178 51.328 50.1178 49.792C51.3658 48.256 52.6138 46.72 53.8618 45.184C55.1098 43.6 56.2138 42.232 57.1738 41.08C56.1658 39.928 54.9898 38.584 53.6458 37.048C52.3018 35.512 50.9818 34 49.6858 32.512C48.4378 31.024 47.3578 29.776 46.4458 28.768C45.1018 27.184 43.9978 26.056 43.1338 25.384C42.2698 24.712 41.6698 24.352 41.3338 24.304H53.1418C52.7578 24.352 52.5898 24.736 52.6378 25.456C52.7338 26.128 53.3818 27.232 54.5818 28.768C55.1098 29.44 55.8058 30.304 56.6698 31.36C57.5338 32.368 58.4458 33.4 59.4058 34.456C60.3658 35.512 61.2298 36.472 61.9978 37.336H62.1418C62.8138 36.52 63.5818 35.584 64.4458 34.528C65.3578 33.472 66.2458 32.416 67.1098 31.36C68.0218 30.304 68.7658 29.392 69.3418 28.624C70.4938 27.088 71.1178 25.984 71.2138 25.312C71.3098 24.64 71.1658 24.304 70.7818 24.304H82.8058C82.3258 24.304 81.5818 24.64 80.5738 25.312C79.6138 25.936 78.5098 27.016 77.2618 28.552C76.3978 29.656 75.3178 30.976 74.0218 32.512C72.7258 34 71.4058 35.512 70.0618 37.048C68.7658 38.584 67.5898 39.928 66.5338 41.08C67.5898 42.184 68.8138 43.504 70.2058 45.04C71.5978 46.528 72.9658 48.04 74.3098 49.576C75.6538 51.064 76.7578 52.384 77.6218 53.536C78.9178 55.168 80.0218 56.32 80.9338 56.992C81.8458 57.664 82.4698 58 82.8058 58H70.9978C71.4298 58 71.5978 57.664 71.5018 56.992C71.4538 56.32 70.8058 55.168 69.5578 53.536C69.0298 52.816 68.3098 51.928 67.3978 50.872C66.4858 49.816 65.5258 48.712 64.5178 47.56C63.5578 46.408 62.6698 45.4 61.8538 44.536H61.7098C61.0378 45.4 60.2458 46.408 59.3338 47.56C58.4218 48.712 57.5338 49.84 56.6698 50.944C55.8538 52 55.1578 52.912 54.5818 53.68C53.3818 55.216 52.7338 56.32 52.6378 56.992C52.5898 57.664 52.7578 58 53.1418 58H41.3338ZM99.3765 58.72C94.1445 58.72 90.4725 57.784 88.3605 55.912C86.2485 53.992 85.1925 51.424 85.1925 48.208C85.1925 44.848 86.4645 42.208 89.0085 40.288C91.5525 38.368 95.4405 37.408 100.673 37.408C104.417 37.408 107.417 37.792 109.673 38.56C111.929 39.28 113.441 39.904 114.209 40.432C114.161 36.16 113.345 33.136 111.761 31.36C110.225 29.536 107.489 28.624 103.553 28.624C100.721 28.624 98.1765 28.96 95.9205 29.632C93.7125 30.256 91.9365 30.952 90.5925 31.72C89.2485 32.44 88.4085 32.968 88.0725 33.304V31.864L87.3525 26.464C87.7845 26.272 88.7205 25.96 90.1605 25.528C91.6005 25.048 93.4965 24.616 95.8485 24.232C98.2005 23.8 100.961 23.584 104.129 23.584C110.177 23.584 114.593 24.88 117.377 27.472C120.161 30.016 121.553 33.952 121.553 39.28V53.68C121.553 55.024 121.697 56.008 121.984 56.632C122.321 57.208 122.657 57.664 122.992 58H114.209V55.84L114.353 54.472L114.209 54.4C112.625 55.84 110.561 56.92 108.017 57.64C105.473 58.36 102.593 58.72 99.3765 58.72ZM101.753 53.608C105.641 53.608 108.689 53.056 110.897 51.952C113.105 50.8 114.209 49.36 114.209 47.632C114.209 46.192 113.249 44.968 111.329 43.96C109.457 42.952 106.529 42.448 102.545 42.448C98.8485 42.448 96.2325 42.928 94.6965 43.888C93.2085 44.848 92.4645 46.288 92.4645 48.208C92.4645 50.08 93.1845 51.448 94.6245 52.312C96.1125 53.176 98.4885 53.608 101.753 53.608ZM129.218 58C129.554 58 129.866 57.664 130.154 56.992C130.49 56.32 130.658 55.216 130.658 53.68V29.344C130.658 27.808 130.49 26.728 130.154 26.104C129.866 25.432 129.554 25.072 129.218 25.024C131.33 25.024 133.154 24.88 134.69 24.592C136.274 24.256 137.378 23.92 138.002 23.584V27.976L137.858 28.912L138.002 29.056C138.722 28.144 139.514 27.28 140.378 26.464C141.29 25.648 142.466 24.976 143.906 24.448C145.346 23.872 147.194 23.584 149.45 23.584C152.378 23.584 154.85 24.136 156.866 25.24C158.93 26.296 160.514 27.952 161.618 30.208C162.194 29.248 163.01 28.264 164.066 27.256C165.17 26.248 166.586 25.384 168.314 24.664C170.042 23.944 172.154 23.584 174.65 23.584C179.114 23.584 182.522 24.856 184.874 27.4C187.274 29.944 188.474 33.928 188.474 39.352V53.68C188.474 55.216 188.618 56.32 188.906 56.992C189.242 57.664 189.578 58 189.914 58H179.69C180.026 58 180.338 57.664 180.626 56.992C180.962 56.32 181.13 55.216 181.13 53.68V39.568C181.13 36.736 180.77 34.528 180.05 32.944C179.33 31.36 178.322 30.256 177.026 29.632C175.778 28.96 174.314 28.624 172.634 28.624C169.85 28.624 167.594 29.512 165.866 31.288C164.138 33.016 163.274 35.968 163.274 40.144V53.68C163.274 55.216 163.418 56.32 163.706 56.992C164.042 57.664 164.378 58 164.714 58H154.49C154.826 58 155.138 57.664 155.426 56.992C155.762 56.32 155.93 55.216 155.93 53.68V39.568C155.93 36.736 155.57 34.528 154.85 32.944C154.13 31.36 153.122 30.256 151.826 29.632C150.578 28.96 149.114 28.624 147.434 28.624C144.746 28.624 142.49 29.512 140.666 31.288C138.89 33.016 138.002 35.992 138.002 40.216V53.68C138.002 55.216 138.146 56.32 138.434 56.992C138.77 57.664 139.106 58 139.442 58H129.218ZM196.085 73.984C196.421 73.984 196.733 73.648 197.021 72.976C197.357 72.304 197.525 71.2 197.525 69.664V28.624C197.525 27.088 197.357 26.008 197.021 25.384C196.733 24.712 196.421 24.352 196.085 24.304H204.869V25.744L204.725 27.112L204.869 27.256C205.829 26.344 207.269 25.504 209.189 24.736C211.157 23.968 213.461 23.584 216.101 23.584C220.565 23.584 224.093 24.376 226.685 25.96C229.277 27.496 231.125 29.584 232.229 32.224C233.381 34.864 233.957 37.864 233.957 41.224C233.957 44.536 233.405 47.512 232.301 50.152C231.197 52.792 229.349 54.88 226.757 56.416C224.165 57.952 220.613 58.72 216.101 58.72C213.461 58.72 211.229 58.408 209.405 57.784C207.629 57.16 206.117 56.296 204.869 55.192L204.725 55.264L204.869 56.632V69.664C204.869 71.2 205.013 72.304 205.301 72.976C205.637 73.648 205.973 73.984 206.309 73.984H196.085ZM215.381 53.608C218.357 53.608 220.661 53.128 222.293 52.168C223.925 51.208 225.053 49.816 225.677 47.992C226.301 46.12 226.613 43.864 226.613 41.224C226.613 38.584 226.277 36.328 225.605 34.456C224.981 32.584 223.853 31.144 222.221 30.136C220.637 29.128 218.357 28.624 215.381 28.624C212.501 28.624 210.293 29.2 208.757 30.352C207.269 31.504 206.237 33.04 205.661 34.96C205.133 36.88 204.869 38.992 204.869 41.296C204.869 43.648 205.157 45.76 205.733 47.632C206.357 49.504 207.413 50.968 208.901 52.024C210.437 53.08 212.597 53.608 215.381 53.608ZM240.108 58C240.444 58 240.756 57.664 241.044 56.992C241.38 56.32 241.548 55.216 241.548 53.68V12.64C241.548 11.104 241.38 10.024 241.044 9.4C240.756 8.728 240.444 8.368 240.108 8.32C242.22 8.32 244.044 8.176 245.58 7.888C247.164 7.552 248.268 7.216 248.892 6.88V53.68C248.892 55.216 249.036 56.32 249.324 56.992C249.66 57.664 249.996 58 250.332 58H240.108ZM275.329 58.72C271.537 58.72 268.417 58.288 265.969 57.424C263.521 56.512 261.601 55.264 260.209 53.68C258.817 52.096 257.833 50.248 257.257 48.136C256.729 46.024 256.465 43.72 256.465 41.224C256.465 35.8 258.001 31.504 261.073 28.336C264.193 25.168 268.801 23.584 274.897 23.584C278.449 23.584 281.305 24.064 283.465 25.024C285.673 25.984 287.329 27.256 288.433 28.84C289.585 30.424 290.353 32.152 290.737 34.024C291.169 35.848 291.385 37.648 291.385 39.424V42.808C291.385 42.664 290.713 42.52 289.369 42.376C288.073 42.184 285.865 42.088 282.745 42.088H263.809C263.809 45.64 264.865 48.448 266.977 50.512C269.089 52.576 272.233 53.608 276.409 53.608C280.009 53.608 282.961 53.176 285.265 52.312C287.617 51.4 289.177 50.512 289.945 49.648V51.088L290.665 55.84C289.609 56.464 287.737 57.112 285.049 57.784C282.409 58.408 279.169 58.72 275.329 58.72ZM266.689 37.336H284.185C284.185 36.088 283.921 34.792 283.393 33.448C282.865 32.104 281.929 30.976 280.585 30.064C279.241 29.104 277.345 28.624 274.897 28.624C271.777 28.624 269.281 29.368 267.409 30.856C265.585 32.344 264.673 34.024 264.673 35.896C264.673 36.376 264.817 36.736 265.105 36.976C265.393 37.216 265.921 37.336 266.689 37.336Z" fill="white"/>
</g>
<g filter="url(#filter1_d)">
<path d="M307.6 58C307.936 58 308.248 57.664 308.536 56.992C308.872 56.32 309.04 55.216 309.04 53.68V12.64C309.04 11.104 308.872 10.024 308.536 9.4C308.248 8.728 307.936 8.368 307.6 8.32C309.712 8.32 311.536 8.176 313.072 7.888C314.656 7.552 315.76 7.216 316.384 6.88V53.68C316.384 55.216 316.528 56.32 316.816 56.992C317.152 57.664 317.488 58 317.824 58H307.6ZM342.534 58.72C337.734 58.72 333.966 57.952 331.23 56.416C328.542 54.88 326.646 52.792 325.542 50.152C324.486 47.512 323.958 44.536 323.958 41.224C323.958 37.864 324.51 34.864 325.614 32.224C326.766 29.584 328.686 27.496 331.374 25.96C334.062 24.376 337.782 23.584 342.534 23.584C347.286 23.584 351.006 24.376 353.694 25.96C356.382 27.496 358.278 29.584 359.382 32.224C360.534 34.864 361.109 37.864 361.109 41.224C361.109 44.536 360.557 47.512 359.453 50.152C358.398 52.792 356.526 54.88 353.838 56.416C351.15 57.952 347.382 58.72 342.534 58.72ZM342.534 53.608C345.51 53.608 347.814 53.128 349.446 52.168C351.078 51.208 352.206 49.816 352.83 47.992C353.454 46.12 353.766 43.864 353.766 41.224C353.766 38.584 353.43 36.328 352.758 34.456C352.134 32.584 351.006 31.144 349.374 30.136C347.79 29.128 345.51 28.624 342.534 28.624C339.606 28.624 337.326 29.152 335.694 30.208C334.062 31.216 332.91 32.68 332.238 34.6C331.614 36.472 331.302 38.704 331.302 41.296C331.302 43.84 331.614 46.048 332.238 47.92C332.862 49.744 333.99 51.16 335.622 52.168C337.254 53.128 339.558 53.608 342.534 53.608ZM384.505 75.568C380.329 75.568 376.681 75.16 373.561 74.344C370.441 73.528 368.209 72.736 366.865 71.968L368.305 65.488V63.4C368.977 64.408 370.033 65.464 371.473 66.568C372.913 67.672 374.713 68.608 376.873 69.376C379.033 70.144 381.481 70.528 384.217 70.528C387.433 70.528 389.809 70 391.345 68.944C392.929 67.888 393.961 66.424 394.441 64.552C394.969 62.68 395.233 60.544 395.233 58.144V55.48L395.377 54.184L395.233 54.04C394.273 55.24 392.785 56.32 390.769 57.28C388.801 58.24 386.377 58.72 383.497 58.72C378.937 58.72 375.385 57.952 372.841 56.416C370.345 54.88 368.593 52.792 367.585 50.152C366.625 47.512 366.145 44.536 366.145 41.224C366.145 37.864 366.625 34.864 367.585 32.224C368.593 29.584 370.345 27.496 372.841 25.96C375.385 24.376 378.937 23.584 383.497 23.584C386.377 23.584 388.777 23.968 390.697 24.736C392.617 25.504 394.129 26.488 395.233 27.688L395.377 27.616L395.233 26.248V24.304H404.017C403.681 24.352 403.345 24.712 403.009 25.384C402.721 26.056 402.577 27.184 402.577 28.768V56.344C402.577 63.304 401.089 68.248 398.113 71.176C395.185 74.104 390.649 75.568 384.505 75.568ZM384.001 53.608C386.977 53.608 389.281 53.152 390.913 52.24C392.545 51.28 393.673 49.888 394.297 48.064C394.921 46.192 395.233 43.912 395.233 41.224C395.233 38.584 394.897 36.328 394.225 34.456C393.601 32.584 392.473 31.144 390.841 30.136C389.257 29.128 386.977 28.624 384.001 28.624C379.969 28.624 377.185 29.776 375.649 32.08C374.161 34.384 373.417 37.456 373.417 41.296C373.417 45.136 374.161 48.16 375.649 50.368C377.137 52.528 379.921 53.608 384.001 53.608ZM428.737 58.72C423.937 58.72 420.169 57.952 417.433 56.416C414.745 54.88 412.849 52.792 411.745 50.152C410.689 47.512 410.161 44.536 410.161 41.224C410.161 37.864 410.713 34.864 411.817 32.224C412.969 29.584 414.889 27.496 417.577 25.96C420.265 24.376 423.985 23.584 428.737 23.584C433.489 23.584 437.209 24.376 439.897 25.96C442.585 27.496 444.481 29.584 445.585 32.224C446.737 34.864 447.313 37.864 447.313 41.224C447.313 44.536 446.761 47.512 445.657 50.152C444.601 52.792 442.729 54.88 440.041 56.416C437.353 57.952 433.585 58.72 428.737 58.72ZM428.737 53.608C431.713 53.608 434.017 53.128 435.649 52.168C437.281 51.208 438.409 49.816 439.033 47.992C439.657 46.12 439.969 43.864 439.969 41.224C439.969 38.584 439.633 36.328 438.961 34.456C438.337 32.584 437.209 31.144 435.577 30.136C433.993 29.128 431.713 28.624 428.737 28.624C425.809 28.624 423.529 29.152 421.897 30.208C420.265 31.216 419.113 32.68 418.441 34.6C417.817 36.472 417.505 38.704 417.505 41.296C417.505 43.84 417.817 46.048 418.441 47.92C419.065 49.744 420.193 51.16 421.825 52.168C423.457 53.128 425.761 53.608 428.737 53.608Z" fill="#38C0DE"/>
</g>
<defs>
<filter id="filter0_d" x="0.52002" y="5.88" width="295.865" height="77.104" filterUnits="userSpaceOnUse" color-interpolation-filters="sRGB">
<feFlood flood-opacity="0" result="BackgroundImageFix"/>
<feColorMatrix in="SourceAlpha" type="matrix" values="0 0 0 0 0 0 0 0 0 0 0 0 0 0 0 0 0 0 127 0"/>
<feOffset dy="4"/>
<feGaussianBlur stdDeviation="2.5"/>
<feColorMatrix type="matrix" values="0 0 0 0 0 0 0 0 0 0 0 0 0 0 0 0 0 0 0.25 0"/>
<feBlend mode="normal" in2="BackgroundImageFix" result="effect1_dropShadow"/>
<feBlend mode="normal" in="SourceGraphic" in2="effect1_dropShadow" result="shape"/>
</filter>
<filter id="filter1_d" x="297.6" y="0.880005" width="159.713" height="88.688" filterUnits="userSpaceOnUse" color-interpolation-filters="sRGB">
<feFlood flood-opacity="0" result="BackgroundImageFix"/>
<feColorMatrix in="SourceAlpha" type="matrix" values="0 0 0 0 0 0 0 0 0 0 0 0 0 0 0 0 0 0 127 0"/>
<feOffset dy="4"/>
<feGaussianBlur stdDeviation="5"/>
<feColorMatrix type="matrix" values="0 0 0 0 0 0 0 0 0 0 0 0 0 0 0 0 0 0 0.25 0"/>
<feBlend mode="normal" in2="BackgroundImageFix" result="effect1_dropShadow"/>
<feBlend mode="normal" in="SourceGraphic" in2="effect1_dropShadow" result="shape"/>
</filter>
</defs>
</svg>
