<svg width="197" height="390" viewBox="0 0 197 390" fill="none" xmlns="http://www.w3.org/2000/svg">
<path d="M194.998 88.2588H191.819C191.116 88.2588 190.547 88.8278 190.547 89.5298V134.15C190.547 134.852 191.116 135.422 191.819 135.422H194.998C195.7 135.422 196.27 134.852 196.27 134.15V89.5298C196.27 88.8278 195.7 88.2588 194.998 88.2588Z" fill="#3F3D56"/>
<path d="M2.6681 51.3104H1.12471C0.663996 51.3104 0.290985 51.6839 0.290985 52.1444V66.003C0.290985 66.4635 0.663996 66.837 1.12471 66.837H2.6681C3.12882 66.837 3.50271 66.4635 3.50271 66.003V52.1444C3.50271 51.6839 3.12882 51.3104 2.6681 51.3104Z" fill="#3F3D56"/>
<path d="M2.85418 79.7367H1.11498C0.594901 79.7367 0.174057 80.1576 0.174057 80.6767V105.822C0.174057 106.341 0.594901 106.762 1.11498 106.762H2.85418C3.37338 106.762 3.7951 106.341 3.7951 105.822V80.6767C3.7951 80.1576 3.37338 79.7367 2.85418 79.7367Z" fill="#3F3D56"/>
<path d="M2.7833 116.218H1.12738C0.632992 116.218 0.232529 116.619 0.232529 117.113V142.582C0.232529 143.077 0.632992 143.477 1.12738 143.477H2.7833C3.2768 143.477 3.67815 143.077 3.67815 142.582V117.113C3.67815 116.619 3.2768 116.218 2.7833 116.218Z" fill="#3F3D56"/>
<path d="M173.826 0H21.919C10.9788 0 2.10995 8.86497 2.10995 19.8004V369.272C2.10995 380.207 10.9788 389.072 21.919 389.072H173.826C184.766 389.072 193.636 380.207 193.636 369.272V19.8004C193.636 8.86497 184.766 0 173.826 0Z" fill="#3F3D56"/>
<path d="M104.733 11.6188H80.8083C80.0295 11.6188 79.3978 12.2501 79.3978 13.0288V15.6371C79.3978 16.4159 80.0295 17.0472 80.8083 17.0472H104.733C105.512 17.0472 106.143 16.4159 106.143 15.6371V13.0288C106.143 12.2501 105.512 11.6188 104.733 11.6188Z" fill="#E6E8EC"/>
<path d="M113.268 17.412C114.969 17.412 116.348 16.0335 116.348 14.3329C116.348 12.6325 114.969 11.254 113.268 11.254C111.566 11.254 110.187 12.6325 110.187 14.3329C110.187 16.0335 111.566 17.412 113.268 17.412Z" fill="#E6E8EC"/>
<path d="M181.971 25.8415V364.237C181.97 368.268 180.367 372.134 177.515 374.985C174.662 377.836 170.792 379.437 166.759 379.436H29.3126C25.2796 379.437 21.4104 377.836 18.5575 374.985C15.7046 372.134 14.1019 368.268 14.101 364.237V25.8415C14.101 23.8447 14.4944 21.8674 15.259 20.0225C16.0227 18.1776 17.1435 16.5014 18.5557 15.0895C19.9689 13.6775 21.6461 12.5575 23.4916 11.7934C25.3371 11.0294 27.3156 10.6362 29.3126 10.6364H49.8809V13.2768C49.8818 16.5972 51.2011 19.7812 53.5507 22.129C55.8995 24.4768 59.0846 25.7961 62.4062 25.7971H132.306C135.628 25.7971 138.814 24.478 141.163 22.13C143.512 19.782 144.832 16.5974 144.832 13.2768V10.6364H166.759C168.757 10.6362 170.735 11.0294 172.58 11.7934C174.427 12.5575 176.103 13.6775 177.516 15.0895C178.929 16.5014 180.049 18.1776 180.814 20.0225C181.578 21.8674 181.971 23.8447 181.971 25.8415Z" fill="white"/>
<path d="M181.903 88.5827H13.7439V281.628H181.903V88.5827Z" fill="#F2F2F2"/>
<path d="M25.9538 308.34L25.0678 307.542C21.9243 304.657 19.8484 302.784 19.8484 300.452C19.8404 300.007 19.922 299.567 20.0876 299.155C20.2533 298.744 20.5005 298.369 20.8133 298.054C21.1269 297.739 21.4999 297.49 21.911 297.322C22.3212 297.154 22.7624 297.07 23.2063 297.075C23.73 297.078 24.2474 297.195 24.7223 297.418C25.1963 297.64 25.6162 297.964 25.9538 298.364C26.2905 297.964 26.7104 297.64 27.1853 297.418C27.6593 297.195 28.1768 297.078 28.7004 297.075C29.1443 297.07 29.5855 297.154 29.9966 297.322C30.4068 297.49 30.7807 297.739 31.0935 298.054C31.4062 298.369 31.6534 298.744 31.8191 299.155C31.9848 299.567 32.0663 300.007 32.0583 300.452C32.0583 302.784 29.9824 304.657 26.8389 307.542L25.9538 308.34Z" fill="#FF6584"/>
<path d="M58.0498 305.389L59.7607 305.878C60.0663 304.992 60.5828 304.194 61.2659 303.552C61.9491 302.911 62.7783 302.445 63.6821 302.196C64.5858 301.947 65.5364 301.921 66.4526 302.121C67.3678 302.321 68.221 302.741 68.9378 303.345L66.325 305.878H72.8494V299.538L70.2198 302.058C69.2798 301.233 68.1501 300.655 66.931 300.374C65.7128 300.094 64.444 300.12 63.2382 300.45C62.0323 300.78 60.9266 301.404 60.0211 302.266C59.1156 303.128 58.4388 304.201 58.0498 305.389Z" fill="#F2F2F2"/>
<path d="M24.8436 74.1598C29.1345 74.1598 32.6129 70.6828 32.6129 66.3937C32.6129 62.1045 29.1345 58.6275 24.8436 58.6275C20.5528 58.6275 17.0735 62.1045 17.0735 66.3937C17.0735 70.6828 20.5528 74.1598 24.8436 74.1598Z" fill="#536DFE"/>
<path d="M110.866 61.9558H38.7183V70.8314H110.866V61.9558Z" fill="#536DFE"/>
<path d="M91.9957 321.568H19.8484V330.444H91.9957V321.568Z" fill="#F2F2F2"/>
<path d="M172.468 340.918H19.8484V349.793H172.468V340.918Z" fill="#F2F2F2"/>
<path d="M50.9273 307.779L49.0153 304.435C49.4725 303.338 49.5186 302.112 49.1438 300.984C48.769 299.856 47.9991 298.901 46.9767 298.295C45.9533 297.689 44.7457 297.472 43.5762 297.684C42.4058 297.897 41.3524 298.525 40.6081 299.453C39.8648 300.38 39.4803 301.544 39.5272 302.732C39.5742 303.92 40.0482 305.051 40.8624 305.917C41.6775 306.783 42.777 307.326 43.9598 307.447C45.1435 307.566 46.3299 307.256 47.3018 306.571L50.9273 307.779Z" fill="#F2F2F2"/>
<path d="M83.5948 133.858C80.7392 134.442 78.0263 135.583 75.6111 137.214C73.1959 138.847 71.1262 140.938 69.5199 143.37C67.9136 145.802 66.8025 148.526 66.2497 151.387C65.6968 154.248 65.7128 157.19 66.2975 160.044L70.879 182.423L76.0089 181.373L76.3704 179.002L77.4442 181.08L108.631 174.701L108.994 172.329L110.067 174.407L114.376 173.525L109.794 151.147C109.21 148.293 108.069 145.581 106.436 143.167C104.803 140.753 102.71 138.684 100.277 137.079C97.8442 135.474 95.1189 134.363 92.2562 133.81C89.3945 133.257 86.4512 133.274 83.5948 133.858Z" fill="#2F2E41"/>
<path d="M122.242 202.513L148.881 218.6L145.551 226.366L120.577 214.717L122.242 202.513Z" fill="#CD8993"/>
<path d="M88.3889 220.819C88.3889 220.819 34.5559 220.819 25.6756 234.687C16.7962 248.555 24.0108 267.971 51.7601 272.409C79.5086 276.847 163.866 279.065 170.526 262.424C177.185 245.782 172.191 236.352 172.191 236.352C172.191 236.352 143.331 216.381 88.3889 220.819Z" fill="#536DFE"/>
<path d="M136.116 234.132L165.531 245.227C165.531 245.227 177.74 236.352 171.635 226.366C165.531 216.381 137.782 158.689 137.782 158.689C137.782 158.689 130.012 147.595 140.002 141.493C149.991 135.391 153.876 145.376 153.876 145.376C153.876 145.376 153.322 147.595 157.206 145.931C161.091 144.266 168.305 149.814 164.42 158.689C160.536 167.565 157.761 169.784 166.086 169.229C169.092 169.029 171.736 166.876 173.888 164.206C178.012 159.088 176.171 154.967 175.859 148.403C175.324 137.159 174.451 129.827 171.635 125.405C167.751 119.304 162.201 114.311 147.772 117.085C133.342 119.859 112.253 133.727 117.247 153.697C122.243 173.667 133.342 195.856 133.342 195.856C133.342 195.856 141.112 226.921 136.116 234.132Z" fill="#536DFE"/>
<path opacity="0.1" d="M136.116 234.132C131.321 235.453 125.3 236.096 118.818 236.296C107.508 236.645 94.776 235.647 84.6092 234.515C73.6264 233.289 65.6348 231.913 65.6348 231.913C69.3471 228.452 75.052 227.082 81.7563 226.583C90.0811 225.962 99.9484 226.672 109.478 226.366C112.99 226.243 116.507 226.508 119.961 227.154C130.473 229.156 136.116 234.132 136.116 234.132Z" fill="black"/>
<path d="M88.1107 174.499C96.6933 174.499 103.65 167.545 103.65 158.967C103.65 150.388 96.6933 143.434 88.1107 143.434C79.5289 143.434 72.5721 150.388 72.5721 158.967C72.5721 167.545 79.5289 174.499 88.1107 174.499Z" fill="#E89EA9"/>
<path d="M86.1686 171.448C86.1686 171.448 88.9435 181.988 86.1686 182.543C83.3936 183.097 76.7336 185.871 76.7336 185.871L85.0584 189.2L100.598 203.623L113.918 210.279L120.577 208.061V195.856L110.587 180.324C110.587 180.324 103.928 182.543 102.263 175.332C100.598 168.12 97.2683 165.346 97.2683 165.346L86.1686 171.448Z" fill="#E89EA9"/>
<path d="M82.2835 186.426H75.6244C75.6244 186.426 63.9691 190.308 57.31 199.185C50.65 208.061 40.1058 216.936 40.1058 216.936C40.1058 216.936 32.8902 226.921 36.7753 240.79C40.6604 254.658 46.2103 264.642 51.2046 261.869C56.1998 259.095 43.99 239.125 43.99 239.125L47.3204 226.921C47.3204 226.921 64.5246 206.951 71.7393 207.506C78.9539 208.061 79.5086 214.162 79.5086 214.162L95.048 218.6L100.043 208.061L97.2683 196.966L82.2835 186.426Z" fill="#E89EA9"/>
<path d="M122.243 221.374C121.193 223.173 120.424 225.122 119.961 227.154C119.268 230.154 118.886 233.217 118.818 236.296C107.508 236.645 94.776 235.647 84.6092 234.515C83.7099 232.119 82.7221 229.362 81.7563 226.583C79.1533 219.072 76.7336 211.405 76.7336 210.279C76.7336 208.061 88.3889 211.943 91.1638 211.389C93.9387 210.834 95.048 201.958 91.1638 197.52C87.2787 193.083 75.9017 185.594 75.9017 185.594L79.7868 184.484C79.7868 184.484 88.3889 190.863 106.148 201.403C123.907 211.943 116.693 195.301 116.693 195.301L106.425 179.491H110.866C110.866 179.491 119.468 194.192 123.907 200.849C128.347 207.506 126.682 214.162 122.243 221.374Z" fill="#3F3D56"/>
<path d="M99.1076 138.012L70.9623 143.769L74.4965 161.032L102.642 155.275L99.1076 138.012Z" fill="#2F2E41"/>
<path d="M159.703 140.106C164.301 140.106 168.028 136.38 168.028 131.785C168.028 127.19 164.301 123.464 159.703 123.464C155.106 123.464 151.379 127.19 151.379 131.785C151.379 136.38 155.106 140.106 159.703 140.106Z" fill="#3F3D56"/>
<path d="M159.703 136.223C162.156 136.223 164.143 134.236 164.143 131.785C164.143 129.334 162.156 127.347 159.703 127.347C157.251 127.347 155.264 129.334 155.264 131.785C155.264 134.236 157.251 136.223 159.703 136.223Z" fill="white"/>
</svg>
